<svg viewBox="0 0 540 960" width="540" height="960" xmlns="http://www.w3.org/2000/svg" xmlns:xlink="http://www.w3.org/1999/xlink" version="1.1">
  <g transform="translate(540, 0)" fill-opacity="0.2">
    <path d="M0 540C-90.2 519.4 -180.4 498.8 -263.5 456.4C-346.6 414 -422.7 349.7 -467.7 270C-512.6 190.3 -526.3 95.1 -540 0L0 0Z" fill="#001c3c"></path>
    <path d="M0 405C-67.6 389.6 -135.3 374.1 -197.6 342.3C-260 310.5 -317.1 262.3 -350.7 202.5C-384.4 142.7 -394.7 71.4 -405 0L0 0Z" fill="#002b75"></path>
    <path d="M0 270C-45.1 259.7 -90.2 249.4 -131.7 228.2C-173.3 207 -211.4 174.9 -233.8 135C-256.3 95.1 -263.1 47.6 -270 0L0 0Z" fill="#412ba5"></path>
    <path d="M0 135C-22.5 129.9 -45.1 124.7 -65.9 114.1C-86.7 103.5 -105.7 87.4 -116.9 67.5C-128.1 47.6 -131.6 23.8 -135 0L0 0Z" fill="#6f1ab6"></path>
  </g>
  <g transform="translate(0, 960)" fill-opacity="0.2">
    <path d="M0 -540C94.3 -525.8 188.7 -511.6 270 -467.7C351.3 -423.7 419.6 -349.9 462.5 -267C505.3 -184.1 522.6 -92 540 0L0 0Z" fill="#001c3c"></path>
    <path d="M0 -405C70.8 -394.4 141.5 -383.7 202.5 -350.7C263.5 -317.8 314.7 -262.4 346.8 -200.3C379 -138.1 392 -69 405 0L0 0Z" fill="#002b75"></path>
    <path d="M0 -270C47.2 -262.9 94.3 -255.8 135 -233.8C175.7 -211.8 209.8 -175 231.2 -133.5C252.6 -92 261.3 -46 270 0L0 0Z" fill="#412ba5"></path>
    <path d="M0 -135C23.6 -131.5 47.2 -127.9 67.5 -116.9C87.8 -105.9 104.9 -87.5 115.6 -66.8C126.3 -46 130.7 -23 135 0L0 0Z" fill="#6f1ab6"></path>
  </g>
</svg>